<svg width="22" height="22" viewBox="0 0 22 22" fill="none" xmlns="http://www.w3.org/2000/svg">
<path fill-rule="evenodd" clip-rule="evenodd" d="M1 11.0888C1 5.51692 5.47715 1 11 1C16.5228 1 21 5.51692 21 11.0888C21 16.6607 16.5228 21.1777 11 21.1777C5.47715 21.1777 1 16.6607 1 11.0888Z" stroke="#5C5B51" stroke-width="1.5"/>
<path fill-rule="evenodd" clip-rule="evenodd" d="M16.4434 8.8927C16.4434 8.8927 16.3347 8.07794 16.0017 7.71915C15.5791 7.24804 15.1055 7.24582 14.8885 7.21847C13.3336 7.09875 11.0013 7.09875 11.0013 7.09875H10.9965C10.9965 7.09875 8.66419 7.09875 7.10933 7.21847C6.89197 7.24582 6.41871 7.24804 5.99579 7.71915C5.6628 8.07794 5.55447 8.8927 5.55447 8.8927C5.55447 8.8927 5.44336 9.84972 5.44336 10.8064V11.7035C5.44336 12.6606 5.55447 13.6172 5.55447 13.6172C5.55447 13.6172 5.6628 14.432 5.99579 14.7908C6.41871 15.2619 6.97391 15.2471 7.22114 15.2962C8.11003 15.3871 10.9989 15.4152 10.9989 15.4152C10.9989 15.4152 13.3336 15.4115 14.8885 15.2918C15.1055 15.2641 15.5791 15.2619 16.0017 14.7908C16.3347 14.432 16.4434 13.6172 16.4434 13.6172C16.4434 13.6172 16.5545 12.6606 16.5545 11.7035V10.8064C16.5545 9.84972 16.4434 8.8927 16.4434 8.8927ZM9.85141 12.7906L9.85106 9.46838L12.8531 11.1352L9.85141 12.7906Z" fill="#5C5B51"/>
</svg>
