<svg width="22" height="22" viewBox="0 0 22 22" fill="none" xmlns="http://www.w3.org/2000/svg">
<path fill-rule="evenodd" clip-rule="evenodd" d="M1 11C1 5.47715 5.47715 1 11 1C16.5228 1 21 5.47715 21 11C21 16.5228 16.5228 21 11 21C5.47715 21 1 16.5228 1 11Z" stroke="#5C5B51" stroke-width="1.5"/>
<path fill-rule="evenodd" clip-rule="evenodd" d="M11.0006 5.00006C9.37105 5.00006 9.16654 5.00719 8.52654 5.03631C7.88778 5.06556 7.45178 5.16669 7.07027 5.31506C6.67564 5.46831 6.34089 5.67331 6.00739 6.00694C5.67363 6.34044 5.46863 6.67519 5.31488 7.06969C5.16613 7.45131 5.06488 7.88744 5.03613 8.52594C5.0075 9.16594 5 9.37056 5 11.0001C5 12.6296 5.00725 12.8334 5.03625 13.4734C5.06563 14.1122 5.16675 14.5482 5.315 14.9297C5.46838 15.3243 5.67338 15.6591 6.00701 15.9926C6.34039 16.3263 6.67514 16.5318 7.06952 16.6851C7.45128 16.8334 7.88741 16.9346 8.52604 16.9638C9.16604 16.9929 9.37042 17.0001 10.9998 17.0001C12.6295 17.0001 12.8333 16.9929 13.4733 16.9638C14.1121 16.9346 14.5486 16.8334 14.9304 16.6851C15.3249 16.5318 15.6591 16.3263 15.9925 15.9926C16.3262 15.6591 16.5312 15.3243 16.685 14.9298C16.8325 14.5482 16.9338 14.1121 16.9638 13.4736C16.9925 12.8336 17 12.6296 17 11.0001C17 9.37056 16.9925 9.16606 16.9638 8.52606C16.9338 7.88731 16.8325 7.45131 16.685 7.06981C16.5312 6.67519 16.3262 6.34044 15.9925 6.00694C15.6587 5.67319 15.325 5.46819 14.93 5.31506C14.5475 5.16669 14.1112 5.06556 13.4725 5.03631C12.8325 5.00719 12.6287 5.00006 10.9987 5.00006H11.0006ZM10.4529 6.00159C10.6153 6.00133 10.7965 6.00159 11.0001 6.00159C12.6285 6.00159 12.8216 6.00743 13.4646 6.03666C14.0593 6.06386 14.3821 6.16324 14.5971 6.24673C14.8817 6.35729 15.0846 6.48946 15.298 6.70295C15.5114 6.91645 15.6436 7.11979 15.7544 7.40445C15.8379 7.61922 15.9374 7.94201 15.9644 8.53676C15.9936 9.17979 16 9.37296 16 11.0009C16 12.6288 15.9936 12.822 15.9644 13.465C15.9372 14.0598 15.8379 14.3826 15.7544 14.5973C15.6438 14.882 15.5114 15.0847 15.298 15.2981C15.0845 15.5116 14.8818 15.6437 14.5971 15.7543C14.3823 15.8382 14.0593 15.9373 13.4646 15.9645C12.8217 15.9937 12.6285 16.0001 11.0001 16.0001C9.37145 16.0001 9.17844 15.9937 8.53548 15.9645C7.94081 15.937 7.61806 15.8376 7.40294 15.7542C7.11831 15.6436 6.91501 15.5114 6.70153 15.2979C6.48806 15.0844 6.35591 14.8816 6.24511 14.5968C6.16163 14.382 6.06214 14.0593 6.03507 13.4645C6.00585 12.8215 6 12.6283 6 10.9994C6 9.37042 6.00585 9.17827 6.03507 8.53523C6.06226 7.94048 6.16163 7.6177 6.24511 7.40267C6.35566 7.11801 6.48806 6.91467 6.70153 6.70118C6.91501 6.48768 7.11831 6.35551 7.40294 6.24469C7.61794 6.16082 7.94081 6.0617 8.53548 6.03437C9.09813 6.00896 9.31618 6.00133 10.4529 6.00006V6.00159ZM14.14 7.30028C13.7867 7.30028 13.5 7.58662 13.5 7.94007C13.5 8.29341 13.7867 8.58008 14.14 8.58008C14.4933 8.58008 14.78 8.29341 14.78 7.94007C14.78 7.58673 14.4933 7.30006 14.14 7.30006V7.30028ZM11.0002 8.00006C9.34335 8.00006 8 9.34344 8 11.0004C8 12.6573 9.34335 14.0001 11.0002 14.0001C12.6571 14.0001 14 12.6573 14 11.0004C14 9.34344 12.657 8.00006 11.0001 8.00006H11.0002ZM11 9.00006C12.1045 9.00006 13 9.89544 13 11.0001C13 12.1046 12.1045 13.0001 11 13.0001C9.89537 13.0001 9 12.1046 9 11.0001C9 9.89544 9.89537 9.00006 11 9.00006Z" fill="#5C5B51"/>
<path d="M8.52654 5.03631L8.51745 4.83652L8.51739 4.83652L8.52654 5.03631ZM7.07027 5.31506L7.14267 5.5015L7.14277 5.50146L7.07027 5.31506ZM6.00739 6.00694L6.14875 6.14841L6.14883 6.14833L6.00739 6.00694ZM5.31488 7.06969L5.50122 7.14232L5.50123 7.14231L5.31488 7.06969ZM5.03613 8.52594L4.83633 8.51694L4.83633 8.517L5.03613 8.52594ZM5.03625 13.4734L4.83646 13.4825L4.83646 13.4826L5.03625 13.4734ZM5.315 14.9297L5.12858 15.0021L5.12859 15.0021L5.315 14.9297ZM6.00701 15.9926L6.14851 15.8512L6.1484 15.8511L6.00701 15.9926ZM7.06952 16.6851L7.14197 16.4986L7.14196 16.4986L7.06952 16.6851ZM8.52604 16.9638L8.51689 17.1636L8.51694 17.1636L8.52604 16.9638ZM13.4733 16.9638L13.4824 17.1636L13.4825 17.1636L13.4733 16.9638ZM14.9304 16.6851L14.8579 16.4986L14.8579 16.4986L14.9304 16.6851ZM15.9925 15.9926L15.8511 15.8511L15.851 15.8512L15.9925 15.9926ZM16.685 14.9298L16.8713 15.0024L16.8715 15.0019L16.685 14.9298ZM16.9638 13.4736L17.1635 13.4829L17.1635 13.4825L16.9638 13.4736ZM16.9638 8.52606L17.1635 8.51709L17.1635 8.51668L16.9638 8.52606ZM16.685 7.06981L16.8715 6.99769L16.8714 6.9972L16.685 7.06981ZM15.9925 6.00694L15.8511 6.14836L15.8511 6.14841L15.9925 6.00694ZM14.93 5.31506L14.8576 5.50152L14.8577 5.50154L14.93 5.31506ZM13.4725 5.03631L13.4816 4.83652L13.4816 4.83652L13.4725 5.03631ZM10.4529 6.00159H10.2529V6.2019L10.4532 6.20159L10.4529 6.00159ZM13.4646 6.03666L13.4738 5.83687L13.4737 5.83687L13.4646 6.03666ZM14.5971 6.24673L14.6695 6.0603L14.6695 6.06029L14.5971 6.24673ZM15.298 6.70295L15.1565 6.84432L15.1565 6.84437L15.298 6.70295ZM15.7544 7.40445L15.9408 7.33199L15.9408 7.3319L15.7544 7.40445ZM15.9644 8.53676L16.1642 8.52768L16.1642 8.52766L15.9644 8.53676ZM15.9644 13.465L16.1642 13.4742L16.1642 13.4741L15.9644 13.465ZM15.7544 14.5973L15.568 14.5249L15.5679 14.5249L15.7544 14.5973ZM15.298 15.2981L15.1566 15.1566L15.1565 15.1566L15.298 15.2981ZM14.5971 15.7543L14.5247 15.5678L14.5243 15.568L14.5971 15.7543ZM13.4646 15.9645L13.4737 16.1643L13.4738 16.1643L13.4646 15.9645ZM8.53548 15.9645L8.52626 16.1643L8.5264 16.1643L8.53548 15.9645ZM7.40294 15.7542L7.33052 15.9406L7.33058 15.9406L7.40294 15.7542ZM6.24511 14.5968L6.0587 14.6693L6.05872 14.6693L6.24511 14.5968ZM6.03507 13.4645L5.83528 13.4736L5.83528 13.4736L6.03507 13.4645ZM6.03507 8.53523L5.83528 8.5261L5.83528 8.52615L6.03507 8.53523ZM6.24511 7.40267L6.05868 7.33027L6.05867 7.33029L6.24511 7.40267ZM7.40294 6.24469L7.4755 6.43107L7.47563 6.43102L7.40294 6.24469ZM8.53548 6.03437L8.52646 5.83458L8.5263 5.83458L8.53548 6.03437ZM10.4529 6.00006H10.6529V5.79984L10.4527 5.80006L10.4529 6.00006ZM14.14 7.30028V7.50028H14.34V7.30028H14.14ZM14.14 7.30006V7.10006H13.94V7.30006H14.14ZM11.0006 4.80006C9.37001 4.80006 9.16197 4.80719 8.51745 4.83652L8.53563 5.2361C9.17111 5.20719 9.37208 5.20006 11.0006 5.20006V4.80006ZM8.51739 4.83652C7.85977 4.86663 7.40202 4.97144 6.99778 5.12866L7.14277 5.50146C7.50153 5.36193 7.91579 5.26449 8.53569 5.2361L8.51739 4.83652ZM6.99787 5.12863C6.57928 5.29118 6.22049 5.51086 5.86594 5.86554L6.14883 6.14833C6.46128 5.83577 6.772 5.64544 7.14267 5.5015L6.99787 5.12863ZM5.86602 5.86546C5.51119 6.22002 5.29156 6.57876 5.12853 6.99706L5.50123 7.14231C5.6457 6.77161 5.83608 6.46085 6.14875 6.14841L5.86602 5.86546ZM5.12853 6.99705C4.97089 7.40149 4.86593 7.85946 4.83633 8.51694L5.23592 8.53493C5.26382 7.91541 5.36136 7.50113 5.50122 7.14232L5.12853 6.99705ZM4.83633 8.517C4.8075 9.16137 4.8 9.36942 4.8 11.0001H5.2C5.2 9.3717 5.2075 9.1705 5.23593 8.53487L4.83633 8.517ZM4.8 11.0001C4.8 12.6306 4.80725 12.838 4.83646 13.4825L5.23605 13.4644C5.20725 12.8289 5.2 12.6285 5.2 11.0001H4.8ZM4.83646 13.4826C4.8667 14.1402 4.97151 14.5979 5.12858 15.0021L5.50142 14.8572C5.36199 14.4984 5.26455 14.0842 5.23604 13.4642L4.83646 13.4826ZM5.12859 15.0021C5.29126 15.4207 5.51093 15.7795 5.86562 16.134L6.1484 15.8511C5.83584 15.5387 5.6455 15.2279 5.50142 14.8572L5.12859 15.0021ZM5.86551 16.1339C6.21987 16.4887 6.57863 16.7089 6.99708 16.8715L7.14196 16.4986C6.77166 16.3547 6.46091 16.164 6.14851 15.8512L5.86551 16.1339ZM6.99707 16.8715C7.40154 17.0287 7.85939 17.1335 8.51689 17.1636L8.53519 16.764C7.91542 16.7356 7.50102 16.6382 7.14197 16.4986L6.99707 16.8715ZM8.51694 17.1636C9.16147 17.1929 9.36939 17.2001 10.9998 17.2001V16.8001C9.37146 16.8001 9.17061 16.7929 8.53513 16.764L8.51694 17.1636ZM10.9998 17.2001C12.6305 17.2001 12.8379 17.1929 13.4824 17.1636L13.4642 16.764C12.8288 16.7929 12.6284 16.8001 10.9998 16.8001V17.2001ZM13.4825 17.1636C14.1401 17.1335 14.5983 17.0287 15.0028 16.8715L14.8579 16.4986C14.4989 16.6382 14.0841 16.7356 13.4642 16.764L13.4825 17.1636ZM15.0028 16.8715C15.4214 16.7088 15.7797 16.4886 16.134 16.1339L15.851 15.8512C15.5385 16.164 15.2283 16.3548 14.8579 16.4986L15.0028 16.8715ZM16.1339 16.134C16.4887 15.7795 16.7083 15.4207 16.8713 15.0024L16.4987 14.8572C16.3542 15.2279 16.1638 15.5386 15.8511 15.8511L16.1339 16.134ZM16.8715 15.0019C17.0277 14.5979 17.1326 14.1402 17.1635 13.4829L16.764 13.4642C16.7349 14.0839 16.6373 14.4985 16.4984 14.8577L16.8715 15.0019ZM17.1635 13.4825C17.1925 12.8381 17.2 12.6307 17.2 11.0001H16.8C16.8 12.6284 16.7925 12.829 16.764 13.4646L17.1635 13.4825ZM17.2 11.0001C17.2 9.36942 17.1925 9.16148 17.1635 8.51709L16.764 8.53504C16.7925 9.17064 16.8 9.3717 16.8 11.0001H17.2ZM17.1635 8.51668C17.1326 7.85915 17.0277 7.40163 16.8715 6.99769L16.4985 7.14193C16.6373 7.50099 16.7349 7.91547 16.764 8.53544L17.1635 8.51668ZM16.8714 6.9972C16.7083 6.57877 16.4887 6.22003 16.1339 5.86546L15.8511 6.14841C16.1638 6.46085 16.3542 6.7716 16.4986 7.14242L16.8714 6.9972ZM16.1339 5.86551C15.7792 5.51084 15.4215 5.29109 15.0023 5.12858L14.8577 5.50154C15.2285 5.64528 15.5382 5.83553 15.8511 6.14836L16.1339 5.86551ZM15.0023 5.1286C14.5972 4.97145 14.1392 4.86663 13.4816 4.83652L13.4633 5.2361C14.0832 5.26449 14.4978 5.36193 14.8576 5.50152L15.0023 5.1286ZM13.4816 4.83652C12.837 4.80719 12.6297 4.80006 10.9987 4.80006V5.20006C12.6277 5.20006 12.8279 5.20719 13.4634 5.2361L13.4816 4.83652ZM10.9987 5.20006H11.0006V4.80006H10.9987V5.20006ZM10.4532 6.20159C10.6154 6.20133 10.7961 6.20159 11.0001 6.20159V5.80159C10.7969 5.80159 10.6152 5.80133 10.4526 5.80159L10.4532 6.20159ZM11.0001 6.20159C12.6278 6.20159 12.8171 6.20744 13.4556 6.23645L13.4737 5.83687C12.826 5.80743 12.6293 5.80159 11.0001 5.80159V6.20159ZM13.4555 6.23645C14.0281 6.26264 14.3295 6.35738 14.5247 6.43316L14.6695 6.06029C14.4346 5.96909 14.0905 5.86507 13.4738 5.83687L13.4555 6.23645ZM14.5246 6.43316C14.7836 6.53376 14.963 6.65068 15.1565 6.84432L15.4394 6.56158C15.2062 6.32823 14.9797 6.18082 14.6695 6.0603L14.5246 6.43316ZM15.1565 6.84437C15.3501 7.03797 15.4671 7.21776 15.568 7.477L15.9408 7.3319C15.8201 7.02181 15.6727 6.79493 15.4394 6.56154L15.1565 6.84437ZM15.568 7.47691C15.6437 7.6718 15.7386 7.97321 15.7646 8.54585L16.1642 8.52766C16.1361 7.91081 16.032 7.56664 15.9408 7.33199L15.568 7.47691ZM15.7646 8.54584C15.7936 9.18428 15.8 9.37386 15.8 11.0009H16.2C16.2 9.37206 16.1936 9.1753 16.1642 8.52768L15.7646 8.54584ZM15.8 11.0009C15.8 12.6279 15.7936 12.8175 15.7646 13.4559L16.1642 13.4741C16.1936 12.8265 16.2 12.6297 16.2 11.0009H15.8ZM15.7646 13.4559C15.7384 14.0286 15.6437 14.33 15.568 14.5249L15.9408 14.6698C16.032 14.4351 16.136 14.0909 16.1642 13.4742L15.7646 13.4559ZM15.5679 14.5249C15.4674 14.7838 15.3503 14.9629 15.1566 15.1566L15.4393 15.4395C15.6725 15.2064 15.8203 14.9802 15.9408 14.6697L15.5679 14.5249ZM15.1565 15.1566C14.9628 15.3504 14.7837 15.4673 14.5247 15.5678L14.6694 15.9407C14.9799 15.8202 15.2061 15.6727 15.4394 15.4395L15.1565 15.1566ZM14.5243 15.568C14.3298 15.644 14.0283 15.7385 13.4555 15.7647L13.4738 16.1643C14.0904 16.1361 14.4348 16.0324 14.6698 15.9406L14.5243 15.568ZM13.4556 15.7647C12.8172 15.7937 12.6277 15.8001 11.0001 15.8001V16.2001C12.6294 16.2001 12.8262 16.1937 13.4737 16.1643L13.4556 15.7647ZM11.0001 15.8001C9.37235 15.8001 9.18293 15.7937 8.54457 15.7647L8.5264 16.1643C9.17395 16.1937 9.37056 16.2001 11.0001 16.2001V15.8001ZM8.54471 15.7647C7.97207 15.7383 7.67062 15.6435 7.4753 15.5677L7.33058 15.9406C7.5655 16.0318 7.90955 16.1358 8.52626 16.1643L8.54471 15.7647ZM7.47536 15.5677C7.21626 15.4671 7.03655 15.3501 6.84296 15.1565L6.5601 15.4393C6.79347 15.6727 7.02036 15.8201 7.33052 15.9406L7.47536 15.5677ZM6.84296 15.1565C6.64929 14.9628 6.53235 14.7835 6.4315 14.5243L6.05872 14.6693C6.17947 14.9797 6.32684 15.206 6.5601 15.4393L6.84296 15.1565ZM6.43152 14.5244C6.35577 14.3295 6.26092 14.0281 6.23486 13.4554L5.83528 13.4736C5.86335 14.0905 5.96749 14.4346 6.0587 14.6693L6.43152 14.5244ZM6.23486 13.4554C6.20585 12.8171 6.2 12.6275 6.2 10.9994H5.8C5.8 12.6291 5.80584 12.8259 5.83528 13.4736L6.23486 13.4554ZM6.2 10.9994C6.2 9.37118 6.20585 9.18269 6.23486 8.54431L5.83528 8.52615C5.80584 9.17385 5.8 9.36965 5.8 10.9994H6.2ZM6.23486 8.54437C6.26105 7.97168 6.35578 7.67023 6.43155 7.47506L6.05867 7.33029C5.96748 7.56516 5.86348 7.90929 5.83528 8.5261L6.23486 8.54437ZM6.43155 7.47507C6.53214 7.21604 6.64931 7.03627 6.84296 6.84259L6.5601 6.55976C6.32682 6.79308 6.17918 7.01997 6.05868 7.33027L6.43155 7.47507ZM6.84296 6.84259C7.03655 6.64898 7.2163 6.53198 7.4755 6.43107L7.33038 6.05832C7.02032 6.17904 6.79346 6.32637 6.5601 6.55976L6.84296 6.84259ZM7.47563 6.43102C7.67047 6.35501 7.9719 6.26048 8.54466 6.23416L8.5263 5.83458C7.90972 5.86291 7.5654 5.96663 7.33025 6.05837L7.47563 6.43102ZM8.54451 6.23417C9.10337 6.20892 9.31833 6.20133 10.4531 6.20006L10.4527 5.80006C9.31403 5.80133 9.0929 5.80899 8.52646 5.83458L8.54451 6.23417ZM10.2529 6.00006V6.00159H10.6529V6.00006H10.2529ZM14.14 7.10028C13.6763 7.10028 13.3 7.47605 13.3 7.94007H13.7C13.7 7.69719 13.897 7.50028 14.14 7.50028V7.10028ZM13.3 7.94007C13.3 8.40386 13.6762 8.78008 14.14 8.78008V8.38007C13.8971 8.38007 13.7 8.18295 13.7 7.94007H13.3ZM14.14 8.78008C14.6038 8.78008 14.98 8.40386 14.98 7.94007H14.58C14.58 8.18295 14.3829 8.38007 14.14 8.38007V8.78008ZM14.98 7.94007C14.98 7.47627 14.6038 7.10006 14.14 7.10006V7.50006C14.3829 7.50006 14.58 7.69719 14.58 7.94007H14.98ZM13.94 7.30006V7.30028H14.34V7.30006H13.94ZM11.0002 7.80006C9.23289 7.80006 7.8 9.23299 7.8 11.0004H8.2C8.2 9.4539 9.45381 8.20006 11.0002 8.20006V7.80006ZM7.8 11.0004C7.8 12.7678 9.23295 14.2001 11.0002 14.2001V13.8001C9.45376 13.8001 8.2 12.5468 8.2 11.0004H7.8ZM11.0002 14.2001C12.7676 14.2001 14.2 12.7678 14.2 11.0004H13.8C13.8 12.5468 12.5467 13.8001 11.0002 13.8001V14.2001ZM14.2 11.0004C14.2 9.23302 12.7675 7.80006 11.0001 7.80006V8.20006C12.5465 8.20006 13.8 9.45386 13.8 11.0004H14.2ZM11.0001 8.20006H11.0002V7.80006H11.0001V8.20006ZM11 9.20006C11.9941 9.20006 12.8 10.0059 12.8 11.0001H13.2C13.2 9.78497 12.2149 8.80006 11 8.80006V9.20006ZM12.8 11.0001C12.8 11.9941 11.994 12.8001 11 12.8001V13.2001C12.215 13.2001 13.2 12.215 13.2 11.0001H12.8ZM11 12.8001C10.0058 12.8001 9.2 11.9941 9.2 11.0001H8.8C8.8 12.215 9.78491 13.2001 11 13.2001V12.8001ZM9.2 11.0001C9.2 10.0059 10.0058 9.20006 11 9.20006V8.80006C9.78492 8.80006 8.8 9.78498 8.8 11.0001H9.2Z" fill="#5C5B51"/>
</svg>
