<svg width="116" height="49" viewBox="0 0 116 49" fill="none" xmlns="http://www.w3.org/2000/svg">
<g clip-path="url(#clip0)">
<path d="M7.39432 15.2966V0.509766H12.7482V14.7867C12.7482 19.8856 10.7086 22.435 6.62949 22.435C4.08003 22.435 2.04047 21.6702 0.255859 20.1405L2.29542 16.5713C3.3152 17.3361 4.33498 17.846 5.35476 17.846C6.1196 17.846 6.62949 17.5911 6.88443 17.0812C7.13938 16.5713 7.39432 16.0614 7.39432 15.2966Z" fill="white"/>
<path d="M30.5917 19.8856C29.0621 21.6702 26.7676 22.435 23.9632 22.435C21.1588 22.435 18.8643 21.6702 17.3346 19.8856C15.8049 18.101 14.7852 16.0614 14.7852 13.512V0.764711H20.139V13.7669C20.139 14.7867 20.3939 15.8065 21.1588 16.5713C21.9236 17.3361 22.9434 17.846 23.9632 17.846C24.983 17.846 26.0027 17.5911 26.7676 16.5713C27.5324 15.8065 27.7874 14.7867 27.7874 13.7669V0.509766H33.1412V13.257C33.1412 15.8065 32.3764 18.101 30.5917 19.8856Z" fill="white"/>
<path d="M45.6337 15.5516C45.6337 15.0418 45.3788 14.5319 44.8689 14.2769C44.359 14.022 43.5942 13.767 42.8293 13.5121C42.0645 13.2571 41.0447 13.0022 40.2799 12.7473C39.2601 12.4923 38.4953 11.9824 37.7304 11.4725C36.9656 10.9626 36.2008 10.4527 35.6909 9.68791C35.181 8.92308 34.926 7.64835 34.926 6.11868C34.926 4.33407 35.6909 2.8044 36.9656 1.52967C37.9854 0.50989 40.0249 0 42.3194 0C45.1238 0 47.6733 0.764835 49.9678 2.29451L47.9282 5.86374C46.1436 4.84396 44.359 4.07912 42.3194 4.07912C41.5546 4.07912 41.0447 4.33407 40.2799 4.58901C39.515 4.84396 39.515 5.35385 39.515 6.11868C39.515 6.62857 39.77 6.88352 40.0249 7.13846C40.2799 7.39341 41.0447 7.64835 41.5546 7.9033C42.3194 8.15824 42.8293 8.41319 43.8491 8.41319C44.6139 8.66813 45.3788 8.92308 46.1436 9.17802C46.9084 9.94286 47.6733 10.1978 48.4381 10.7077C49.203 11.2176 49.7128 11.7275 49.9678 12.7473C50.2227 13.767 50.4777 14.5319 50.4777 15.5516C50.4777 17.3363 49.7128 18.8659 47.9282 20.3956C46.1436 21.6703 44.359 22.4352 42.0645 22.4352C39.0052 22.4352 36.4557 21.6703 33.9062 19.8857L35.9458 16.0615C36.7106 16.5714 37.7304 17.0813 39.0052 17.3363C40.2799 17.5912 41.5546 17.8462 42.5744 17.8462C43.5942 17.8462 44.359 17.5912 44.8689 17.3363C45.3788 16.8264 45.6337 16.3165 45.6337 15.5516Z" fill="white"/>
<path d="M67.307 0.509766V5.35372H61.1883V21.9251H56.0894V5.35372H49.9707V0.509766H67.307Z" fill="white"/>
<path d="M2.03906 48.4396V27.0242H7.39291V48.4396H2.03906Z" fill="white"/>
<path d="M14.5325 27.0242L20.3962 36.2022L26.26 27.0242H31.3589V48.4396H26.5149V34.4176L21.416 42.8308H19.3764L14.2775 34.4176V48.4396H9.43359V27.0242H14.5325Z" fill="white"/>
<path d="M45.3823 27.0242L53.0306 48.4396H47.6768L46.4021 44.8703H38.2438L36.9691 48.4396H31.6152L39.2636 27.0242H45.3823ZM42.3229 33.1428L39.7735 40.5363H45.1273L42.3229 33.1428Z" fill="white"/>
<path d="M60.678 40.2813V36.7121H71.1308V46.4C68.5813 48.1846 65.7769 48.9494 62.7176 48.9494C59.1484 48.9494 56.5989 47.9297 54.5593 45.8901C52.5198 43.8505 51.5 41.0461 51.5 37.9868C51.5 34.6725 52.5198 32.1231 54.5593 30.0835C56.5989 28.0439 59.4033 27.0242 62.7176 27.0242C65.522 27.0242 67.8165 27.789 70.111 29.0637L68.0714 33.3978C66.5418 32.633 64.7571 32.1231 62.9725 32.1231C61.1879 32.1231 59.4033 32.633 58.3835 33.9077C57.3637 35.1824 56.5989 36.4571 56.5989 38.2418C56.5989 40.0264 57.1088 41.556 58.3835 42.5758C59.4033 43.8505 60.933 44.3604 62.7176 44.3604C63.7374 44.3604 65.0121 44.1055 65.7769 43.5956V40.5363H60.678V40.2813Z" fill="white"/>
<path d="M72.6602 48.4396V27.0242H78.014V48.4396H72.6602Z" fill="white"/>
<path d="M85.6624 35.9472V48.4396H80.3086V27.0242H85.6624L93.5657 39.5165V27.0242H98.9196V48.4396H93.5657L85.6624 35.9472Z" fill="white"/>
<path d="M116.002 43.8505V48.4396H101.215V27.0242H116.002V31.6132H106.569V35.4374H114.217V39.7714H106.569V43.8505H116.002Z" fill="white"/>
</g>
<defs>
<clipPath id="clip0">
<rect width="116" height="48.9495" fill="white"/>
</clipPath>
</defs>
</svg>
