<svg width="146" height="37" viewBox="0 0 146 37" fill="none" xmlns="http://www.w3.org/2000/svg">
<path d="M23.1077 1.28524H27.5216V21.5235C27.5216 23.5583 27.2086 25.4365 26.5825 27.1583C25.9564 28.88 25.0643 30.367 23.906 31.6192C22.779 32.8713 21.386 33.8418 19.7269 34.5305C18.099 35.2192 16.2677 35.5635 14.233 35.5635C12.2608 35.5635 10.4608 35.2348 8.83295 34.5774C7.20512 33.8887 5.81208 32.9339 4.65382 31.7131C3.49556 30.4922 2.58773 29.0209 1.93034 27.2992C1.30425 25.5774 0.991211 23.6678 0.991211 21.5705V1.28524H5.40512V21.6174C5.40512 23.0261 5.6086 24.2939 6.01556 25.4209C6.45382 26.5478 7.06425 27.5183 7.84686 28.3322C8.62947 29.1148 9.5686 29.7252 10.6643 30.1635C11.7599 30.5705 12.9651 30.7739 14.2799 30.7739C15.626 30.7739 16.8469 30.5548 17.9425 30.1165C19.0382 29.6783 19.9616 29.0522 20.7129 28.2383C21.4956 27.4244 22.0903 26.4539 22.4973 25.327C22.9043 24.2 23.1077 22.9478 23.1077 21.5705V1.28524Z" fill="#ffffff"/>
<path d="M45.3982 11.0052C46.6503 11.0052 47.8868 11.2244 49.1077 11.6626C50.3286 12.0696 51.4242 12.7113 52.3947 13.5878C53.3651 14.4331 54.1477 15.5444 54.7425 16.9218C55.3373 18.2678 55.6347 19.88 55.6347 21.7583V35H51.3616V21.8522C51.3616 20.8505 51.2051 19.9583 50.8921 19.1757C50.579 18.3931 50.1564 17.7357 49.6242 17.2035C49.0921 16.6713 48.466 16.2644 47.746 15.9826C47.026 15.7009 46.2434 15.56 45.3982 15.56C44.6469 15.56 43.9268 15.6696 43.2382 15.8887C42.5495 16.1078 41.9234 16.4209 41.3599 16.8278C40.7964 17.2035 40.3112 17.6574 39.9042 18.1896C39.5286 18.7218 39.2782 19.3009 39.1529 19.927V35H34.8799V11.5687H39.0121V14.1513C39.3564 13.2435 40.0764 12.4922 41.1721 11.8974C42.2677 11.3026 43.6764 11.0052 45.3982 11.0052Z" fill="#ffffff"/>
<path d="M62.3968 11.5687H66.6698V35H62.3968V11.5687ZM61.4107 3.96176C61.4107 3.08524 61.7081 2.34959 62.3029 1.75481C62.929 1.12872 63.6646 0.815674 64.5098 0.815674C65.3864 0.815674 66.122 1.12872 66.7168 1.75481C67.3429 2.34959 67.6559 3.08524 67.6559 3.96176C67.6559 4.80698 67.3429 5.54263 66.7168 6.16872C66.122 6.7635 65.3864 7.06089 64.5098 7.06089C63.6646 7.06089 62.929 6.7635 62.3029 6.16872C61.7081 5.54263 61.4107 4.80698 61.4107 3.96176Z" fill="#ffffff"/>
<path d="M94.9039 18.4244C95.5613 19.927 95.89 21.5548 95.89 23.3078C95.89 25.0609 95.5613 26.6887 94.9039 28.1913C94.2778 29.6939 93.417 30.9931 92.3213 32.0887C91.257 33.1844 90.0048 34.0452 88.5648 34.6713C87.1561 35.2661 85.6535 35.5635 84.057 35.5635C82.4605 35.5635 80.9422 35.2661 79.5022 34.6713C78.0622 34.0452 76.7944 33.1844 75.6987 32.0887C74.6344 30.9931 73.7892 29.6939 73.1631 28.1913C72.537 26.6887 72.2239 25.0609 72.2239 23.3078C72.2239 21.5548 72.537 19.927 73.1631 18.4244C73.7892 16.9218 74.6344 15.6226 75.6987 14.527C76.7944 13.4313 78.0622 12.5705 79.5022 11.9444C80.9422 11.3183 82.4605 11.0052 84.057 11.0052C85.6535 11.0052 87.1561 11.3183 88.5648 11.9444C90.0048 12.5705 91.257 13.4313 92.3213 14.527C93.417 15.6226 94.2778 16.9218 94.9039 18.4244ZM76.497 23.3078C76.497 24.4661 76.6848 25.5305 77.0604 26.5009C77.4361 27.44 77.9683 28.2539 78.657 28.9426C79.3457 29.6 80.1439 30.1165 81.0518 30.4922C81.9596 30.8365 82.9613 31.0087 84.057 31.0087C85.1213 31.0087 86.1074 30.8365 87.0152 30.4922C87.9544 30.1165 88.7683 29.6 89.457 28.9426C90.1457 28.2539 90.6778 27.44 91.0535 26.5009C91.4291 25.5618 91.617 24.5131 91.617 23.3548C91.617 22.1965 91.4291 21.1478 91.0535 20.2087C90.6778 19.2383 90.1457 18.4087 89.457 17.72C88.7683 17.0313 87.9544 16.4992 87.0152 16.1235C86.1074 15.7478 85.1213 15.56 84.057 15.56C82.9613 15.56 81.9596 15.7478 81.0518 16.1235C80.1439 16.4992 79.3457 17.0313 78.657 17.72C77.9683 18.4087 77.4361 19.2383 77.0604 20.2087C76.6848 21.1478 76.497 22.1809 76.497 23.3078Z" fill="#ffffff"/>
<path d="M111.994 11.0052C113.246 11.0052 114.483 11.2244 115.704 11.6626C116.925 12.0696 118.02 12.7113 118.991 13.5878C119.961 14.4331 120.744 15.5444 121.339 16.9218C121.933 18.2678 122.231 19.88 122.231 21.7583V35H117.958V21.8522C117.958 20.8505 117.801 19.9583 117.488 19.1757C117.175 18.3931 116.753 17.7357 116.22 17.2035C115.688 16.6713 115.062 16.2644 114.342 15.9826C113.622 15.7009 112.839 15.56 111.994 15.56C111.243 15.56 110.523 15.6696 109.834 15.8887C109.146 16.1078 108.519 16.4209 107.956 16.8278C107.393 17.2035 106.907 17.6574 106.5 18.1896C106.125 18.7218 105.874 19.3009 105.749 19.927V35H101.476V11.5687H105.608V14.1513C105.953 13.2435 106.673 12.4922 107.768 11.8974C108.864 11.3026 110.273 11.0052 111.994 11.0052Z" fill="#ffffff"/>
<path fill-rule="evenodd" clip-rule="evenodd" d="M64.5098 1.31567C63.8041 1.31567 63.1937 1.57107 62.6564 2.10836C62.1597 2.60507 61.9107 3.21163 61.9107 3.96176C61.9107 4.67162 62.1539 5.28185 62.6566 5.81505C63.1898 6.3177 63.8 6.56089 64.5098 6.56089C65.26 6.56089 65.8665 6.31187 66.3632 5.81516C66.9005 5.27788 67.1559 4.66751 67.1559 3.96176C67.1559 3.21997 66.8975 2.6161 66.3724 2.11731L66.3631 2.10848L66.3543 2.09918C65.8555 1.57413 65.2516 1.31567 64.5098 1.31567ZM61.9493 1.40125C62.6642 0.686363 63.5251 0.315674 64.5098 0.315674C65.5168 0.315674 66.3811 0.680183 67.0705 1.40117C67.7914 2.0905 68.1559 2.95483 68.1559 3.96176C68.1559 4.94645 67.7852 5.80738 67.0703 6.52227C66.3775 7.21513 65.5127 7.56089 64.5098 7.56089C63.5334 7.56089 62.6753 7.21215 61.9585 6.53122L61.9492 6.52239L61.9404 6.51309C61.2595 5.79633 60.9107 4.93821 60.9107 3.96176C60.9107 2.95885 61.2565 2.09411 61.9493 1.40125ZM0.491211 0.785239H5.90512V21.6174C5.90512 22.9757 6.10096 24.1829 6.48377 25.2454C6.899 26.3111 7.47311 27.2211 8.20385 27.9821C8.93342 28.7107 9.81129 29.283 10.8442 29.6969C11.8761 30.0794 13.0196 30.2739 14.2799 30.2739C15.5713 30.2739 16.7279 30.0639 17.7568 29.6523C18.788 29.2399 19.648 28.6548 20.3455 27.8991L20.3525 27.8917C21.0835 27.1314 21.6424 26.2223 22.027 25.1572C22.4116 24.0921 22.6077 22.8985 22.6077 21.5705V0.785239H28.0216V21.5235C28.0216 23.6101 27.7005 25.5469 27.0524 27.3292C26.4057 29.1076 25.4809 30.6522 24.2754 31.9562C23.0962 33.2656 21.6415 34.2768 19.9202 34.9916C18.2225 35.7096 16.324 36.0635 14.233 36.0635C12.2045 36.0635 10.3399 35.7252 8.64572 35.041L8.6381 35.038C6.95015 34.3238 5.49909 33.3305 4.29109 32.0572C3.0833 30.7841 2.14189 29.255 1.46323 27.4775L1.46039 27.47C0.811724 25.6862 0.491211 23.7178 0.491211 21.5705V0.785239ZM1.49121 1.78524V21.5705C1.49121 23.6163 1.79626 25.4658 2.39887 27.1245C3.03487 28.7889 3.90864 30.2011 5.01655 31.3689C6.12416 32.5364 7.45786 33.4522 9.02387 34.1153C10.5843 34.7449 12.3186 35.0635 14.233 35.0635C16.2108 35.0635 17.9745 34.7289 19.532 34.07L19.5352 34.0687C21.1302 33.4066 22.4604 32.4779 23.5343 31.2847L23.5389 31.2796C24.6488 30.0798 25.5076 28.6513 26.1126 26.9874C26.7167 25.3262 27.0216 23.5064 27.0216 21.5235V1.78524H23.6077V21.5705C23.6077 22.9972 23.3969 24.3079 22.9676 25.4968C22.5389 26.6839 21.9093 27.7144 21.0769 28.5812C20.2725 29.4515 19.2867 30.1174 18.1282 30.5808C16.9658 31.0458 15.6807 31.2739 14.2799 31.2739C12.9131 31.2739 11.648 31.0623 10.4902 30.6322L10.4785 30.6279C9.3242 30.1662 8.32691 29.5194 7.49331 28.6858L7.48638 28.6788C6.65483 27.814 6.01003 26.7862 5.54956 25.6021L5.54514 25.5908C5.1154 24.4007 4.90512 23.0741 4.90512 21.6174V1.78524H1.49121ZM45.3982 11.5052C43.7296 11.5052 42.4105 11.7941 41.4106 12.3368C40.3896 12.8911 39.7705 13.5615 39.4796 14.3287L38.5121 14.1513V12.0687H35.3799V34.5H38.6529V19.8775L38.6626 19.8289C38.8018 19.133 39.0807 18.4893 39.4958 17.9012L39.5013 17.8934L39.5071 17.8859C39.946 17.3119 40.4692 16.8219 41.0747 16.417C41.6809 15.9805 42.3524 15.6458 43.0866 15.4123C43.8262 15.1769 44.5975 15.06 45.3982 15.06C46.2999 15.06 47.1449 15.2105 47.9282 15.517C48.7106 15.8232 49.3955 16.2676 49.9778 16.8499C50.5633 17.4354 51.0211 18.152 51.3563 18.99C51.697 19.8417 51.8616 20.7986 51.8616 21.8522V34.5H55.1347V21.7583C55.1347 19.9311 54.8452 18.3913 54.2852 17.1238L54.2835 17.12C53.7134 15.7999 52.9717 14.7535 52.0663 13.9649L52.0595 13.959C51.1394 13.128 50.1039 12.5217 48.9496 12.137L48.9387 12.1334C47.7701 11.7138 46.5907 11.5052 45.3982 11.5052ZM40.9335 11.458C42.125 10.8112 43.6233 10.5052 45.3982 10.5052C46.7081 10.5052 47.9999 10.7344 49.2713 11.1901C50.5551 11.6189 51.7079 12.2946 52.7265 13.2138C53.7598 14.1148 54.5819 15.2893 55.2006 16.7214C55.8296 18.1458 56.1347 19.8297 56.1347 21.7583V35.5H50.8616V21.8522C50.8616 20.9023 50.7132 20.0749 50.4278 19.3614C50.1369 18.6341 49.7495 18.0359 49.2707 17.5571C48.7886 17.075 48.2213 16.7056 47.5638 16.4483C46.907 16.1913 46.1869 16.06 45.3982 16.06C44.6962 16.06 44.0275 16.1623 43.3898 16.3652C42.7496 16.5689 42.1714 16.8585 41.6526 17.2332L41.645 17.2387L41.6372 17.2439C41.1218 17.5875 40.6792 18.001 40.3073 18.4857C39.9836 18.9463 39.7665 19.4427 39.6529 19.9779V35.5H34.3799V11.0687H39.5121V12.4968C39.9021 12.1049 40.3785 11.7593 40.9335 11.458ZM84.057 11.5052C82.5279 11.5052 81.0776 11.8046 79.7016 12.4029C78.3193 13.0039 77.1048 13.8286 76.0547 14.8781C75.0382 15.9252 74.2276 17.1695 73.6246 18.6167C73.0258 20.0538 72.7239 21.6157 72.7239 23.3078C72.7239 25 73.0258 26.5619 73.6246 27.999C74.2276 29.4462 75.0382 30.6905 76.0546 31.7375C77.1037 32.7861 78.3169 33.6102 79.6974 34.211C81.0741 34.779 82.5259 35.0635 84.057 35.0635C85.5888 35.0635 87.0242 34.7787 88.368 34.2117C89.7489 33.6109 90.9456 32.7873 91.9627 31.7403L91.9678 31.7352C93.0149 30.688 93.8401 29.4444 94.4424 27.999L94.4458 27.9909C95.0736 26.5557 95.39 24.9967 95.39 23.3078C95.39 21.619 95.0737 20.0599 94.4459 18.6248L94.4423 18.6167C93.8401 17.1713 93.0149 15.9277 91.9678 14.8805L91.9627 14.8754C90.945 13.8278 89.7474 13.0038 88.3654 12.4029L88.3617 12.4013C87.0193 11.8046 85.5861 11.5052 84.057 11.5052ZM79.3028 11.4858C80.8068 10.8319 82.393 10.5052 84.057 10.5052C85.7202 10.5052 87.2916 10.8317 88.766 11.4866C90.2622 12.1374 91.5675 13.034 92.6775 14.1761C93.8195 15.3187 94.7146 16.6712 95.3639 18.2282C96.0495 19.7971 96.39 21.4923 96.39 23.3078C96.39 25.1234 96.0495 26.8186 95.3639 28.3875C94.7146 29.9445 93.8194 31.297 92.6775 32.4396C91.567 33.5821 90.2611 34.479 88.7642 35.1299L88.7593 35.132C87.2863 35.7539 85.7173 36.0635 84.057 36.0635C82.3966 36.0635 80.8134 35.7539 79.3113 35.1335L79.3028 35.1299C77.8061 34.4792 76.4858 33.5829 75.3452 32.4423L75.3401 32.4371C74.2291 31.2935 73.3502 29.9404 72.7015 28.3836C72.0481 26.8155 71.7239 25.1218 71.7239 23.3078C71.7239 21.4939 72.0481 19.8002 72.7015 18.2321C73.3502 16.6753 74.2291 15.3222 75.3401 14.1786L75.3452 14.1734C76.4858 13.0328 77.8061 12.1366 79.3028 11.4858ZM111.994 11.5052C110.326 11.5052 109.007 11.7941 108.007 12.3368C106.986 12.8911 106.367 13.5615 106.076 14.3287L105.108 14.1513V12.0687H101.976V34.5H105.249V19.8775L105.259 19.8289C105.398 19.133 105.677 18.4893 106.092 17.9012L106.097 17.8934L106.103 17.8859C106.542 17.3119 107.065 16.8219 107.671 16.417C108.277 15.9805 108.949 15.6458 109.683 15.4123C110.422 15.1769 111.194 15.06 111.994 15.06C112.896 15.06 113.741 15.2105 114.524 15.517C115.307 15.8232 115.992 16.2676 116.574 16.8499C117.159 17.4354 117.617 18.152 117.952 18.99C118.293 19.8417 118.458 20.7986 118.458 21.8522V34.5H121.731V21.7583C121.731 19.9311 121.441 18.3913 120.881 17.1238L120.88 17.12C120.31 15.7999 119.568 14.7535 118.662 13.9649L118.656 13.959C117.736 13.128 116.7 12.5217 115.546 12.137L115.535 12.1334C114.366 11.7138 113.187 11.5052 111.994 11.5052ZM107.53 11.458C108.721 10.8112 110.219 10.5052 111.994 10.5052C113.304 10.5052 114.596 10.7344 115.867 11.1901C117.151 11.6189 118.304 12.2946 119.323 13.2138C120.356 14.1148 121.178 15.2893 121.797 16.7214C122.426 18.1458 122.731 19.8297 122.731 21.7583V35.5H117.458V21.8522C117.458 20.9023 117.309 20.0749 117.024 19.3614C116.733 18.6341 116.346 18.0359 115.867 17.5571C115.385 17.075 114.817 16.7056 114.16 16.4483C113.503 16.1913 112.783 16.06 111.994 16.06C111.292 16.06 110.624 16.1623 109.986 16.3652C109.346 16.5689 108.768 16.8585 108.249 17.2332L108.241 17.2387L108.233 17.2439C107.718 17.5875 107.275 18.0011 106.903 18.4858C106.58 18.9464 106.363 19.4427 106.249 19.9779V35.5H100.976V11.0687H106.108V12.4968C106.498 12.1049 106.975 11.7593 107.53 11.458ZM61.8968 11.0687H67.1698V35.5H61.8968V11.0687ZM62.8968 12.0687V34.5H66.1698V12.0687H62.8968ZM80.8606 15.6615C81.8356 15.258 82.9033 15.06 84.057 15.06C85.1804 15.06 86.2312 15.2584 87.2038 15.6604C88.2021 16.0602 89.0728 16.6287 89.8105 17.3665C90.5512 18.1072 91.12 18.9962 91.519 20.0261C91.9206 21.0314 92.117 22.1433 92.117 23.3548C92.117 24.5675 91.9202 25.6805 91.5177 26.6866C91.1179 27.6861 90.549 28.5578 89.8105 29.2962L89.8023 29.3044C89.0646 30.0085 88.1956 30.5586 87.2009 30.9564L87.1926 30.9598C86.2229 31.3276 85.1761 31.5087 84.057 31.5087C82.9085 31.5087 81.8457 31.3281 80.8744 30.9597L80.8675 30.9571L80.8606 30.9542C79.8975 30.5557 79.0466 30.0057 78.3117 29.3043L78.3033 29.2963C77.5649 28.5579 76.996 27.6861 76.5962 26.6866L76.5942 26.6814C76.1938 25.6472 75.997 24.5209 75.997 23.3078C75.997 22.1255 76.1941 21.0294 76.5952 20.0255C76.9942 18.9958 77.5629 18.107 78.3034 17.3665C79.039 16.6309 79.8926 16.062 80.8606 15.6615ZM84.057 16.06C83.0194 16.06 82.0835 16.2377 81.2429 16.5855C80.3953 16.9363 79.6523 17.4318 79.0105 18.0736C78.3744 18.7098 77.879 19.4792 77.5267 20.3892L77.5247 20.3944C77.1752 21.2681 76.997 22.2373 76.997 23.3078C76.997 24.4103 77.1754 25.4117 77.5257 26.3177C77.8764 27.1935 78.37 27.9475 79.0064 28.585C79.6463 29.1948 80.3883 29.6756 81.2361 30.0274C82.0787 30.3459 83.0171 30.5087 84.057 30.5087C85.0649 30.5087 85.9889 30.3461 86.8337 30.0263C87.7136 29.6738 88.4697 29.1928 89.1075 28.585C89.7445 27.9469 90.2385 27.192 90.5893 26.3152C90.9381 25.4431 91.117 24.4586 91.117 23.3548C91.117 22.251 90.9381 21.2666 90.5893 20.3944L90.5872 20.3892C90.2349 19.4792 89.7396 18.7098 89.1034 18.0736C88.4645 17.4346 87.7083 16.9392 86.8295 16.5877L86.8241 16.5855C85.9817 16.237 85.0612 16.06 84.057 16.06Z" fill="#ffffff"/>
<path d="M146 15.9053V20.3805H143.957V25H139.237V20.3805H128V19.4782L135.714 1H140.681L134.446 15.9053H139.378L140.188 10.1669H143.957V15.9053H146Z" fill="#ffffff"/>
</svg>