<svg width="165" height="41" viewBox="0 0 165 41" fill="none" xmlns="http://www.w3.org/2000/svg">
<path d="M21.5326 1.42773L27.9184 1.42773L27.9184 24.1657C27.9184 26.4442 27.5915 28.5426 26.9449 30.4688C26.2983 32.3949 25.3612 34.0627 24.1479 35.4564C22.9274 36.858 21.4599 37.9463 19.7382 38.7137C18.0164 39.481 16.0839 39.8647 13.9335 39.8647C11.8558 39.8647 9.95967 39.4888 8.2379 38.7372C6.51613 37.9855 5.04863 36.9284 3.82814 35.5582C2.60764 34.1958 1.67047 32.5437 1.0021 30.6254C0.333734 28.7071 -0.000435348 26.5617 -0.000435126 24.2127L-0.000432968 1.42773L6.38537 1.42773L6.38536 24.0639C6.38536 26.6165 7.08279 28.6523 8.47765 30.1556C9.8725 31.6589 11.725 32.4106 14.0353 32.4106C16.3745 32.4106 18.2125 31.6433 19.542 30.1008C20.8715 28.5583 21.5398 26.5304 21.5398 24.0091L21.5399 1.42773L21.5326 1.42773Z" fill="white"/>
<path d="M95.3044 38.728C97.0262 37.9606 98.4937 36.8723 99.7142 35.4707C100.935 34.077 101.865 32.4093 102.511 30.4831C103.165 28.5569 103.485 26.4585 103.485 24.18L103.485 20.5626L103.485 18.9497L103.485 16.4128C103.485 14.1343 103.158 12.0359 102.511 10.1097C101.857 8.18358 100.927 6.51581 99.7142 5.12209C98.4937 3.72054 97.0262 2.63219 95.3044 1.86486C93.5826 1.09753 91.6502 0.713867 89.4998 0.713867C87.422 0.713867 85.5259 1.0897 83.8041 1.84137C82.0824 2.59304 80.6149 3.65007 79.3944 5.02031C78.1739 6.38271 77.2367 8.03481 76.5683 9.95313C75.9 11.8793 75.5658 14.0168 75.5658 16.3658L75.5658 18.9575L75.5658 20.5705L75.5658 24.2427C75.5658 26.5916 75.9 28.7292 76.5683 30.6554C77.2367 32.5815 78.1739 34.2258 79.3944 35.5882C80.6149 36.9506 82.0824 38.0155 83.8041 38.7671C85.5259 39.5188 87.422 39.8946 89.4998 39.8946C91.6429 39.8868 93.5754 39.5031 95.3044 38.728ZM84.0439 30.1777C82.649 28.6666 81.9516 26.6386 81.9516 24.0861L81.9516 20.5705L81.9516 18.9575L81.9516 16.5224C81.9516 13.9699 82.649 11.9341 84.0439 10.4308C85.4387 8.92742 87.2913 8.17575 89.6015 8.17575C91.9408 8.17575 93.7788 8.94308 95.1082 10.4856C96.4377 12.0281 97.1061 14.056 97.1061 16.5772L97.1061 18.9653L97.1061 20.5783L97.1061 24.0391C97.1061 26.5603 96.4377 28.5883 95.1082 30.1308C93.7788 31.6732 91.9408 32.4406 89.6015 32.4406C87.2913 32.4327 85.4387 31.6811 84.0439 30.1777Z" fill="white"/>
<path d="M31.7425 1.42773L38.1283 1.42773L54.4016 27.0001L54.4016 1.42773L60.7874 1.42773L60.7874 39.1365L54.358 39.1365L38.1283 13.7207L38.1283 39.1365L31.7425 39.1365L31.7425 1.42773Z" fill="white"/>
<path d="M65.5175 1.42773L71.9033 1.42773L71.9033 39.1365L65.5174 39.1365L65.5175 1.42773Z" fill="white"/>
<path d="M107.28 1.42773L113.665 1.42773L129.939 27.0001L129.939 1.42773L136.325 1.42773L136.325 39.1365L129.895 39.1365L113.665 13.7207L113.665 39.1365L107.28 39.1365L107.28 1.42773Z" fill="white"/>
<path d="M157.742 12.3951C157.742 11.0953 157.291 9.91303 156.398 8.88732C155.483 7.83028 154.182 7.29785 152.533 7.29785C150.891 7.29785 149.591 7.83028 148.661 8.87949C147.738 9.9052 147.273 11.0953 147.273 12.4029C147.273 13.7184 147.738 14.9007 148.668 15.9186C149.598 16.9364 150.898 17.461 152.533 17.461C154.175 17.461 155.475 16.9364 156.391 15.9107C157.284 14.8772 157.742 13.7027 157.742 12.3951ZM154.226 11.064C154.603 11.4947 154.778 11.9175 154.778 12.3951C154.778 12.8649 154.611 13.2799 154.247 13.687C153.913 14.0629 153.354 14.2508 152.533 14.2508C151.712 14.2508 151.138 14.0629 150.789 13.6714C150.404 13.2486 150.245 12.8649 150.245 12.3951C150.245 11.9253 150.419 11.5103 150.804 11.0797C151.16 10.6804 151.719 10.4846 152.533 10.4846C153.339 10.4846 153.892 10.6725 154.226 11.064Z" fill="white"/>
<path d="M158.554 27.6639C158.554 26.0118 157.972 24.6181 156.825 23.5141C155.713 22.4414 154.253 21.8933 152.487 21.8933C150.729 21.8933 149.262 22.4336 148.136 23.5063C146.973 24.6103 146.378 26.0118 146.378 27.6639C146.378 29.2847 146.966 30.6706 148.136 31.7746C149.262 32.8395 150.729 33.3798 152.487 33.3798C154.253 33.3798 155.713 32.8317 156.825 31.7668C157.972 30.6628 158.554 29.2847 158.554 27.6639ZM150.097 25.9022C150.679 25.3541 151.463 25.0879 152.495 25.0879C153.526 25.0879 154.296 25.3541 154.856 25.8944C155.372 26.3955 155.597 26.9201 155.597 27.6639C155.597 28.3765 155.379 28.8854 154.856 29.3865C154.296 29.9268 153.526 30.1852 152.502 30.1852C151.478 30.1852 150.693 29.9189 150.112 29.3787L150.105 29.3709C149.582 28.8776 149.356 28.3608 149.356 27.6639C149.349 26.9279 149.574 26.4033 150.097 25.9022Z" fill="white"/>
<path d="M157.474 39.6662C158.985 39.0242 160.307 38.1316 161.418 37.0119C162.53 35.8765 163.416 34.5298 164.048 33.0108C164.68 31.4762 165 29.8006 165 28.0388C165 25.9561 164.542 24.0534 163.634 22.3857C163.009 21.2347 162.261 20.2481 161.411 19.426C161.985 18.7839 162.508 18.0087 162.98 17.1161C163.75 15.6363 164.143 13.9607 164.143 12.1207C164.143 10.4607 163.859 8.88692 163.293 7.43839C162.733 5.98203 161.92 4.68227 160.881 3.57826C159.849 2.4899 158.614 1.60513 157.198 0.963076C155.788 0.321025 154.226 -2.17378e-07 152.57 -2.50798e-07C150.913 -2.84218e-07 149.359 0.321025 147.928 0.963076C146.511 1.60513 145.276 2.48207 144.252 3.57043C143.213 4.67444 142.399 5.96637 141.84 7.42273C141.273 8.87126 140.99 10.4451 140.99 12.1128C140.99 13.9529 141.382 15.6363 142.159 17.1161C142.624 18.0009 143.14 18.7682 143.692 19.4181C142.835 20.2403 142.094 21.2425 141.469 22.3935C140.583 24.0534 140.132 25.9561 140.132 28.0388C140.132 29.8006 140.452 31.4762 141.084 33.0108C141.709 34.5298 142.595 35.8765 143.714 37.0119C144.825 38.1316 146.155 39.0242 147.659 39.6662C149.163 40.2926 150.804 40.6136 152.555 40.6136C154.321 40.6136 155.97 40.2926 157.474 39.6662ZM152.57 37.419C151.19 37.419 149.911 37.1763 148.756 36.6909C147.601 36.1976 146.591 35.5242 145.755 34.6864C144.927 33.8486 144.266 32.8464 143.808 31.7189C143.343 30.5914 143.111 29.3543 143.111 28.0388C143.111 26.5198 143.431 25.1574 144.055 23.9908C144.695 22.785 145.508 21.8297 146.467 21.1485L148.654 19.5747L146.547 17.8835C145.901 17.3667 145.298 16.5759 144.753 15.5345C144.223 14.5244 143.968 13.4048 143.968 12.105C143.968 10.8679 144.179 9.70123 144.593 8.6442C145.007 7.5715 145.581 6.64757 146.344 5.8411C147.099 5.03462 148.022 4.38474 149.083 3.90711C150.143 3.42949 151.32 3.19459 152.577 3.19459C153.841 3.19459 155.018 3.43732 156.064 3.90711C157.139 4.4004 158.04 5.03462 158.81 5.84893C159.573 6.6554 160.147 7.57933 160.561 8.65986C160.975 9.72472 161.179 10.8835 161.179 12.1128C161.179 13.4126 160.924 14.5323 160.401 15.5345C159.849 16.5759 159.239 17.3589 158.578 17.8678L156.391 19.5512L158.636 21.1407C159.617 21.8376 160.416 22.7693 161.077 23.9908C161.716 25.1653 162.036 26.5198 162.036 28.031C162.036 29.3464 161.803 30.5835 161.339 31.7032C160.874 32.8307 160.212 33.8329 159.384 34.6707C158.549 35.5164 157.546 36.1897 156.391 36.6752C155.236 37.1685 153.95 37.419 152.57 37.419Z" fill="white"/>
</svg>
