<svg width="159" height="51" viewBox="0 0 159 51" fill="none" xmlns="http://www.w3.org/2000/svg">
<g clip-path="url(#clip0)">
<path d="M25.1875 17.8891C26.2415 18.5314 27.676 18.8233 29.4912 18.7649C31.277 18.7065 32.7116 18.3854 33.7948 17.8015C34.8781 17.2177 35.6978 16.4587 36.2541 15.4953C36.8103 14.5319 37.1909 13.4226 37.3958 12.1965C37.4544 11.8754 37.5422 11.4083 37.6301 10.8244C37.7179 10.2406 37.835 9.59834 37.9814 8.86852C38.0985 8.16789 38.2449 7.46726 38.362 6.76663C38.5669 5.6573 38.7426 4.63555 38.8889 3.75976C39.0353 2.85478 39.211 1.9498 39.3866 1.01562L34.8195 1.16159C34.6438 2.09576 34.4975 3.02994 34.3218 3.90572C34.1754 4.8107 33.9705 5.80326 33.7656 6.91259L32.9165 11.671C32.7994 12.3425 32.6238 12.9263 32.3603 13.4226C32.0968 13.9189 31.7747 14.2984 31.3356 14.5903C30.8965 14.8531 30.3402 14.999 29.6668 15.0282C29.0228 15.0574 28.4958 14.9114 28.1445 14.5903C27.7639 14.2692 27.5297 13.8313 27.4418 13.2766C27.3247 12.722 27.354 12.0797 27.4711 11.3207L28.2323 7.11694C28.4372 6.00761 28.6129 5.01505 28.7593 4.11007C28.9056 3.23429 29.0813 2.32931 29.257 1.36594L24.6898 1.5411C24.5142 2.47527 24.3678 3.40944 24.1921 4.28523C24.0457 5.16102 23.8408 6.18277 23.6359 7.2921C23.548 7.81757 23.4602 8.34304 23.3431 8.83932C23.2553 9.36479 23.1675 9.83188 23.0796 10.2406C22.9918 10.6493 22.9332 11.0288 22.8747 11.2915C22.6112 12.722 22.6698 14.0357 23.0211 15.1742C23.4309 16.3419 24.1336 17.2469 25.1875 17.8891Z" fill="white"/>
<path d="M58.5829 4.34973L59.227 4.32054C59.0806 5.07955 58.9343 5.89695 58.7879 6.80193L57.8803 11.8815C57.6754 12.9908 57.529 13.9542 57.3533 14.83C57.207 15.6766 57.0606 16.5523 56.8849 17.4573L61.452 17.3114C61.5984 16.4064 61.7741 15.5306 61.9205 14.684C62.0668 13.8374 62.2425 12.8448 62.4474 11.7355L63.355 6.65597C63.5307 5.7218 63.677 4.93359 63.7941 4.17458L64.4089 4.14538C65.2872 4.11619 66.0777 4.087 66.7511 4.0578C67.4244 4.02861 68.0685 3.99942 68.6833 3.99942L69.3566 0L55.0112 0.496278L54.3086 4.4957C54.9234 4.4665 55.5675 4.4665 56.2408 4.43731C56.9142 4.40812 57.7047 4.37893 58.5829 4.34973Z" fill="white"/>
<path d="M11.5349 27.6972C11.7984 26.2668 12.0619 24.8071 12.3254 23.2891L4.8306 23.5518C4.56712 25.0698 4.30363 26.5295 4.06942 27.96C3.80593 29.3904 3.54244 30.996 3.2204 32.7768L1.58092 42.0602C1.25888 43.841 0.995397 45.3882 0.761186 46.7603C0.526975 48.1324 0.263487 49.5336 0 50.9933L7.49475 50.7305C7.75824 49.2709 8.02173 47.8696 8.25594 46.4975C8.49015 45.1255 8.75364 43.5782 9.07568 41.7975L10.7152 32.5141C11.0079 30.7333 11.2714 29.1277 11.5349 27.6972Z" fill="white"/>
<path d="M34.3867 26.7962C33.7133 28.1099 33.04 29.4528 32.3373 30.7956L28.2679 38.7361L27.7995 38.7653L26.2479 31.0292C25.9844 29.7155 25.7502 28.4018 25.4867 27.1173C25.2232 25.8328 24.9597 24.4316 24.6669 22.9135L17.4064 23.1763C16.938 24.7235 16.4988 26.2415 16.0597 27.7304C15.6205 29.2192 15.1521 30.7956 14.6544 32.4596L11.9024 41.743C11.4047 43.407 10.9363 44.9542 10.5264 46.4139C10.0873 47.8735 9.64815 49.304 9.23828 50.7052L16.0304 50.4717C16.5281 48.7201 17.0258 47.0853 17.4649 45.5089C17.9334 43.9325 18.3725 42.4728 18.7824 41.1007L20.539 35.1454L21.0074 35.1162L22.237 41.3927C22.4127 42.356 22.6176 43.3778 22.7932 44.3704C22.9689 45.3921 23.1738 46.3847 23.3788 47.3772C23.5837 48.3698 23.7594 49.304 23.9057 50.1798L28.7364 50.0046C29.4097 48.6325 30.1123 47.1437 30.8735 45.6257C31.6347 44.0784 32.3666 42.5312 33.1278 40.9548L36.2018 34.5907L36.6995 34.5615L36.3775 40.4293C36.3189 41.7722 36.2311 43.2318 36.1433 44.7791C36.0554 46.3555 35.9676 47.9903 35.8798 49.7419L42.8183 49.5083C42.8768 48.0779 42.9354 46.6474 43.0232 45.2462C43.0818 43.8449 43.1696 42.3269 43.2574 40.6629L43.6966 31.4379C43.7844 29.7739 43.843 28.1975 43.9308 26.7086C43.9893 25.2198 44.0772 23.7309 44.1357 22.2129L36.5531 22.4756C35.792 24.0229 35.0308 25.4825 34.3867 26.7962Z" fill="white"/>
<path d="M69.6659 39.4085L68.3777 29.9792C68.1435 28.3152 67.9386 26.8264 67.7336 25.4835C67.558 24.1406 67.3531 22.7686 67.1774 21.3965L57.7504 21.7176C57.0478 23.1481 56.3744 24.5785 55.7011 25.9506C55.0277 27.3518 54.2958 28.8407 53.5053 30.4755L48.9382 39.9924C48.2063 41.5104 47.4451 43.0868 46.6547 44.7216C45.8642 46.3564 45.103 47.962 44.3711 49.4509L52.1586 49.1881C52.7734 47.7869 53.3882 46.3272 54.0323 44.8384C54.1787 44.4881 54.3251 44.1669 54.4714 43.8458L63.2836 43.5247C63.3129 43.8458 63.3422 44.1961 63.3715 44.5173C63.4886 45.9769 63.635 47.4074 63.7813 48.7794L71.0126 48.5167C70.8077 47.0862 70.6027 45.5682 70.3685 43.9626C70.105 42.3862 69.9001 40.8682 69.6659 39.4085ZM61.2928 27.7313L61.8198 27.7022L62.7567 38.0948L56.7843 38.2992L61.2928 27.7313Z" fill="white"/>
<path d="M89.4664 36.6263C89.2908 37.6188 89.0858 38.7574 88.8809 40.071C88.7345 40.8884 88.5881 41.7058 88.4418 42.5524C87.7977 42.64 87.095 42.6984 86.3631 42.7276C85.0457 42.786 83.9039 42.5524 82.9671 42.0853C82.0302 41.5891 81.2983 40.9468 80.7713 40.1002C80.2444 39.2536 79.893 38.2903 79.7467 37.1809C79.6003 36.1008 79.6003 34.9623 79.8345 33.7654C80.0687 32.4225 80.4493 31.284 80.9763 30.3206C81.5032 29.3865 82.1473 28.6274 82.9085 28.0144C83.6697 27.4305 84.4894 26.9927 85.3677 26.7299C86.246 26.4672 87.1829 26.292 88.1197 26.2628C88.7931 26.2336 89.5835 26.292 90.4618 26.4088C91.3694 26.5256 92.3355 26.7591 93.3602 27.1094C94.4142 27.4597 96.2293 28.3939 97.5467 29.2113L98.8056 22.1466C98.0737 21.7963 97.049 21.4168 96.2293 21.1541C95.4096 20.9205 94.5605 20.7162 93.653 20.5118C92.7454 20.3367 91.7793 20.1907 90.7839 20.1323C89.7885 20.074 88.7638 20.0448 87.7098 20.074C84.87 20.1615 82.4108 20.7162 80.3029 21.7088C78.195 22.7013 76.4677 24.1609 75.1503 26.0293C73.8328 27.9268 72.9252 30.2622 72.4276 33.0648C72.0762 35.1666 72.0762 37.1518 72.4276 39.0493C72.7789 40.9468 73.5108 42.6108 74.6233 44.0705C75.7358 45.5301 77.2289 46.6394 79.1319 47.4276C81.0348 48.2158 83.3184 48.5953 85.9825 48.4786C86.773 48.4494 87.5635 48.391 88.3832 48.3034C89.1737 48.2158 89.9641 48.0699 90.7253 47.9239C91.4865 47.7779 92.1891 47.6028 92.8332 47.3984C93.4773 47.1941 94.0336 47.0189 94.4727 46.8146C94.7069 45.4133 94.9411 44.1872 95.1168 43.0779C95.3217 41.9978 95.4974 40.8884 95.7023 39.7791C95.9365 38.4654 96.1122 37.3269 96.2878 36.3344C96.4635 35.3418 96.6392 34.3492 96.8148 33.3275L89.9641 33.561C89.7885 34.612 89.6421 35.6337 89.4664 36.6263Z" fill="white"/>
<path d="M108.968 24.33C109.232 22.8996 109.495 21.4399 109.759 19.9219L102.264 20.1846C102.001 21.7026 101.737 23.1623 101.503 24.5927C101.24 26.0232 100.976 27.6288 100.654 29.4096L99.0145 38.6929C98.6925 40.4737 98.429 42.0209 98.1948 43.393C97.9606 44.765 97.6971 46.1663 97.4336 47.6259L104.928 47.3632C105.192 45.9036 105.455 44.5023 105.69 43.1302C105.924 41.7582 106.187 40.2109 106.509 38.4302L108.149 29.1468C108.442 27.3661 108.705 25.7605 108.968 24.33Z" fill="white"/>
<path d="M51.9069 1.21958C51.4385 1.04442 50.9115 0.89846 50.326 0.781688C49.7405 0.664917 49.155 0.577339 48.5694 0.48976C47.9546 0.431374 47.3691 0.402182 46.7836 0.431374C45.4661 0.48976 44.3829 0.69411 43.5046 1.04442C42.6263 1.42393 41.953 1.92021 41.4553 2.59164C40.9576 3.26308 40.6355 4.08048 40.4891 5.04384C40.3135 6.06559 40.3428 6.91218 40.6355 7.64201C40.899 8.34263 41.3674 8.95568 42.0115 9.42277C42.6556 9.91905 43.4753 10.3277 44.4415 10.7073C45.0855 10.9408 45.6418 11.1743 46.0809 11.4079C46.5494 11.6414 46.8714 11.9042 47.0763 12.1669C47.2813 12.4296 47.3691 12.7508 47.2813 13.1011C47.2227 13.4806 47.0763 13.7725 46.8714 13.9769C46.6665 14.1812 46.403 14.3272 46.0809 14.4147C45.7589 14.5023 45.3783 14.5607 44.9392 14.5607C44.3244 14.5899 43.7095 14.5315 43.0947 14.4147C42.4799 14.298 41.8944 14.1228 41.3089 13.8893C40.7234 13.6557 40.1964 13.3638 39.6694 13.0427L39.6109 13.247C39.5816 13.4514 39.5523 13.6557 39.4938 13.8893L39.1132 16.1079C39.0546 16.4582 38.9961 16.7502 38.9375 17.0421C39.2888 17.2465 39.7572 17.4216 40.3135 17.5968C41.0161 17.8011 41.7773 17.9763 42.6556 18.0638C43.5046 18.1806 44.3829 18.2098 45.2612 18.1806C46.6957 18.1222 47.8668 17.9179 48.8036 17.5676C49.7405 17.2173 50.4431 16.6918 50.9701 15.9912C51.4971 15.2905 51.8484 14.3856 52.024 13.3054C52.1704 12.4588 52.1411 11.6998 51.9362 11.0284C51.7313 10.3569 51.2629 9.77308 50.6188 9.2768C49.9454 8.75133 49.0086 8.28425 47.779 7.84635C47.1056 7.58362 46.5494 7.32088 46.1688 7.08734C45.7882 6.8538 45.4954 6.59106 45.349 6.32833C45.2026 6.06559 45.1441 5.74447 45.2026 5.42335C45.2612 5.10223 45.4076 4.86869 45.6125 4.66434C45.8467 4.45999 46.1102 4.34321 46.4323 4.25564C46.7543 4.16806 47.1056 4.10967 47.4862 4.10967C47.8375 4.10967 48.2767 4.13886 48.8329 4.22644C49.3892 4.31402 49.9454 4.48918 50.5309 4.69353C51.1165 4.89788 51.6434 5.18981 52.0826 5.51093L52.1119 5.45254C52.1704 5.13142 52.229 4.78111 52.3168 4.37241L52.6974 2.15375C52.7267 1.9494 52.7559 1.77424 52.7852 1.59909C52.551 1.45312 52.2582 1.33635 51.9069 1.21958Z" fill="white"/>
<path d="M137.035 18.9668L130.184 19.2003C129.92 20.7184 129.657 22.2072 129.393 23.6085C129.13 25.0097 128.866 26.6153 128.544 28.3961L127.373 34.9061L126.846 34.9353L124.007 29.0092C123.304 27.5203 122.572 26.0023 121.84 24.4551C121.108 22.9078 120.318 21.273 119.498 19.5507L113.086 19.7842C112.823 21.3022 112.559 22.7619 112.296 24.1923C112.032 25.6228 111.769 27.1992 111.447 28.98L109.807 38.3217C109.485 40.0733 109.222 41.6497 108.988 42.9926C108.754 44.3646 108.49 45.7659 108.227 47.2255L115.077 46.992C115.341 45.5031 115.604 44.1019 115.838 42.759C116.073 41.4161 116.365 39.8397 116.658 38.059L117.858 31.1986L118.356 31.1694L121.284 37.154C122.162 38.9347 122.953 40.5987 123.714 42.1168C124.475 43.6348 125.178 45.1236 125.88 46.6125L132.116 46.4081C132.38 44.9193 132.643 43.518 132.877 42.1752C133.111 40.8323 133.375 39.2559 133.697 37.5043L135.336 28.1918C135.659 26.411 135.922 24.8054 136.185 23.4041C136.508 21.9445 136.771 20.4848 137.035 18.9668Z" fill="white"/>
<path d="M146.563 24.4932L149.695 24.3764C151.481 24.318 153.003 24.2596 154.321 24.2012C155.638 24.1429 156.839 24.1137 157.98 24.0845L159.005 18.1875L140.473 18.8297C140.21 20.377 139.946 21.8366 139.712 23.2379C139.449 24.6391 139.185 26.2447 138.863 28.0547L137.224 37.338C136.901 39.1188 136.638 40.666 136.404 42.0089C136.17 43.3518 135.906 44.7822 135.672 46.2419L154.467 45.5996L155.521 39.7027C154.321 39.7319 153.033 39.7902 151.745 39.8486C150.427 39.907 149.051 39.9362 147.558 39.9946L143.899 40.1114C144.133 38.8561 144.367 37.484 144.63 35.9368L144.806 34.9442L148.027 34.8275C149.637 34.7691 151.013 34.7107 152.184 34.6815C153.355 34.6523 154.526 34.5939 155.697 34.5647L156.634 29.1348C155.551 29.164 154.409 29.2224 153.208 29.2516C152.037 29.2808 150.632 29.3392 148.993 29.3976L145.772 29.5143V28.9013C146.065 27.2957 146.328 25.836 146.563 24.4932Z" fill="white"/>
<path d="M8.25568 18.479C9.30963 19.1213 10.7442 19.4132 12.5593 19.3548C14.3452 19.2964 15.7797 18.9753 16.8629 18.3915C17.9462 17.8076 18.7659 17.0486 19.3221 16.0852C19.8784 15.1219 20.259 14.0125 20.4639 12.7864C20.5225 12.4653 20.6103 11.9982 20.6981 11.4144C20.786 10.8305 20.9031 10.1883 21.0494 9.45845C21.1665 8.75782 21.3129 8.05719 21.43 7.35656C21.6057 6.27643 21.7814 5.25468 21.9277 4.37889C22.0741 3.47391 22.2498 2.56894 22.4254 1.63477L17.8583 1.78073C17.6827 2.7149 17.5363 3.64907 17.3606 4.52486C17.2142 5.42983 17.0093 6.42239 16.8337 7.53172L15.9846 12.261C15.8675 12.9324 15.6919 13.5162 15.4284 14.0125C15.1649 14.5088 14.8429 14.8883 14.4037 15.1802C13.9646 15.443 13.4083 15.5889 12.735 15.6181C12.0909 15.6473 11.5639 15.5014 11.2126 15.1802C10.8613 14.8591 10.5978 14.4212 10.51 13.8666C10.4514 13.633 10.4514 13.3411 10.4514 13.0784L5.82575 13.2243C5.79647 14.1585 5.8843 15.0051 6.11851 15.7933C6.4991 16.9318 7.20173 17.8368 8.25568 18.479Z" fill="white"/>
</g>
<defs>
<clipPath id="clip0">
<rect width="159" height="51" fill="white"/>
</clipPath>
</defs>
</svg>
